<?xml version="1.0" encoding="UTF-8"?><svg id="Camada_1" xmlns="http://www.w3.org/2000/svg" width="210" height="48" viewBox="0 0 210 48"><path d="m9.6,28.4l-.8,11c0,.2,0,.4,0,.5,0,0-.1.1-.4.1h-2.2c-1.5,0-2.6-.3-3.2-.9s-1-1.4-1-2.5,0-1.4.1-2.7c0-1.3.2-2.8.3-4.4.1-1.7.3-3.4.4-5.2.1-1.8.3-3.6.4-5.2.1-1.6.2-3.1.3-4.3,0-1.2.1-2.1.1-2.5s.2-.6.6-.6h14.1c.2,0,.3,0,.4.1.1,0,.2.2.2.4l-.2,2.4c0,.8-.3,1.5-.7,2-.4.5-1.2.7-2.4.7h-5.5l-.4,5.6h5.7c.2,0,.3,0,.4.1.1,0,.2.2.2.4l-.2,2.4c0,.8-.3,1.5-.7,2-.4.5-1.2.7-2.4.7h-3.5Zm8.2,6.6c0-2.4,1.1-4.3,3.2-5.6,2.2-1.4,5.3-2.1,9.6-2.2,0-.3,0-.5,0-.7,0-.2,0-.5,0-.8,0-.9-.2-1.5-.5-2-.3-.5-1-.8-2-.8s-1,0-1.4.2c-.3.2-.6.4-.8.7-.2.3-.4.6-.5,1-.1.4-.3.8-.4,1.3,0,.2-.2.4-.4.5-.2,0-.5,0-.9,0-2.7,0-4.1-1-4.1-3.1s.2-1.6.6-2.4c.4-.7,1-1.4,1.7-1.9.8-.6,1.7-1,2.9-1.3s2.5-.5,4-.5c3,0,5.1.6,6.4,1.8,1.3,1.2,2,3,2,5.2s0,.8-.1,1.6c0,.7-.1,1.5-.2,2.4,0,.8-.2,1.6-.2,2.4,0,.7,0,1.3,0,1.6,0,.7.1,1.1.4,1.4.2.3.5.5.8.6.3.1.6.2.8.2.2,0,.4.2.4.4,0,.6,0,1.2-.2,1.8s-.4,1.2-.8,1.7c-.3.5-.8.9-1.5,1.2-.6.3-1.4.5-2.3.5s-2.2-.3-2.9-.9c-.6-.6-1.1-1.5-1.3-2.6-.6.9-1.5,1.7-2.5,2.4-1,.7-2.3,1-4,1s-1.6,0-2.3-.3c-.7-.2-1.3-.5-1.8-.9-.5-.4-.9-1-1.2-1.6-.3-.7-.4-1.5-.4-2.5Zm12.4-4.6c-.7,0-1.4,0-2,.2-.7.1-1.3.3-1.8.5-.5.2-.9.5-1.2.9-.3.4-.5.8-.5,1.4s.2,1,.6,1.3c.4.2.8.4,1.3.4s.9,0,1.3-.3.8-.5,1.1-.8c.3-.4.6-.9.9-1.4s.4-1.2.4-2Zm20.6-12.9c2.3,0,3.9.5,5,1.4,1.1.9,1.6,2,1.6,3.4s-.4,2.1-1.1,2.7c-.7.6-1.8.9-3.2.9s-.6,0-.8-.1c-.1,0-.2-.2-.2-.4s0-.5,0-.8c0-.3-.1-.6-.3-.9-.1-.3-.4-.5-.7-.7-.3-.2-.7-.3-1.3-.3s-1.3.2-1.8.6c-.5.3-.7.8-.7,1.3s.2,1,.7,1.4c.5.3,1.1.6,1.8.9.7.3,1.5.6,2.3.9.8.3,1.6.7,2.3,1.2.7.5,1.3,1.1,1.8,1.9.5.7.7,1.7.7,2.9,0,1.9-.7,3.5-2,4.7-1.4,1.2-3.4,1.8-6.1,1.8s-1.6,0-2.6-.2c-1-.1-1.9-.3-2.8-.5-.9-.3-1.6-.6-2.2-1-.6-.4-.9-1-.9-1.6s0-.5.1-.9c.1-.3.3-.7.4-1,.2-.3.5-.6.7-.8.3-.2.6-.4,1-.4s.6,0,.9.2c.3.2.6.3.9.5.4.2.8.3,1.4.5.5.2,1.2.2,2.1.2s1.3,0,1.8-.2c.5-.2.8-.5.8-1.1s-.2-.9-.6-1.2c-.4-.3-1-.6-1.6-.9-.6-.3-1.3-.5-2.1-.8-.7-.3-1.5-.7-2.1-1.2-.6-.5-1.2-1.1-1.6-1.9-.4-.8-.6-1.8-.6-3.1s.3-2.5.8-3.4c.6-1,1.3-1.7,2.1-2.3.9-.6,1.9-1,3-1.2,1.1-.3,2.2-.4,3.3-.4Zm18.1,5.8c0,1-.2,2-.3,3,0,1-.2,1.9-.2,2.8,0,.9-.1,1.7-.2,2.4,0,.7,0,1.2,0,1.6,0,.7,0,1.2.2,1.4.2.2.4.3.8.3s.5,0,.8-.2c.2-.1.4-.2.6-.4.2-.1.3-.3.5-.4.2-.1.3-.2.5-.2s.4.1.5.3c.2.2.2.7.2,1.5,0,1.5-.4,2.6-1.2,3.5-.8.9-2.2,1.3-4.1,1.3s-3.3-.4-4.3-1.3c-.9-.9-1.4-2.3-1.4-4.1s0-.9,0-1.4c0-.6.1-1.3.2-2.2,0-.9.2-2,.3-3.2.1-1.3.3-2.9.4-4.8h-2.1c-.2,0-.3,0-.4-.1,0-.1,0-.3,0-.4v-2c.1-.3.2-.7.2-1,0-.3.2-.7.4-.9.2-.3.5-.5.9-.6.4-.2.9-.2,1.5-.2.2-.5.4-1.1.6-1.7.2-.7.5-1.3.7-1.9.2-.6.5-1.2.7-1.6.2-.4.5-.6.6-.6h1.2c1.1,0,1.9.3,2.3,1,.4.7.6,1.5.6,2.5s0,1.3-.1,2.4h4.2c.4,0,.6.2.6.6l-.2,2.2c0,.8-.3,1.5-.7,2-.4.5-1.2.7-2.4.7h-2.1Z" style="fill:#1cbbf9;"/><path d="m89.7,17.2l-1.5,22.2c0,.4-.2.6-.4.6h-2.2c-1.5,0-2.6-.3-3.2-.9s-1-1.4-1-2.5,0-1,0-1.8c0-.8.1-1.7.2-2.8,0-1.1.2-2.3.2-3.5.1-1.3.2-2.6.3-3.8.1-1.3.2-2.6.3-3.9.1-1.3.2-2.5.3-3.6h-6.4c-.3,0-.4-.2-.4-.6v-2.2c.1-.3.2-.7.3-1,.1-.3.3-.7.5-.9.2-.3.5-.5.8-.6.3-.2.8-.2,1.2-.2h17.9c.2,0,.3,0,.4.1s.2.2.2.4l-.2,2.4c0,.8-.3,1.5-.7,2-.4.5-1.2.7-2.4.7h-4.3Zm19.8,10.4h-.6c-.2,0-.4,0-.6,0-.2,0-.3-.1-.5-.2-.1,0-.2-.2-.2-.3,0-.3,0-.7,0-1,0-.3,0-.6,0-.9,0-.6,0-1.1-.2-1.4-.2-.4-.5-.6-1-.6-.7,0-1.4.5-1.9,1.5-.5,1-.8,2.4-.9,4.4,0,.9-.1,1.8-.2,2.9,0,1.1-.2,2.1-.2,3.1,0,1-.1,1.9-.2,2.6,0,.8,0,1.3,0,1.5s0,.5-.3.6c-.2.1-.4.2-.6.2h-1.4c-.8,0-1.5,0-2-.2-.5-.2-.9-.4-1.2-.8-.3-.3-.5-.7-.6-1.2-.1-.5-.2-1-.2-1.6s0-1,0-1.7c0-.7.1-1.8.2-3,.1-1.3.2-2.9.4-4.9.2-2,.3-4.5.6-7.4,0-.8.3-1.2.8-1.2h1.6c.7,0,1.4,0,1.9.2.5.2.9.4,1.2.7.3.3.5.6.7,1,.2.4.3.8.3,1.2.3-.6.7-1.1,1.1-1.6.5-.5.9-.8,1.4-1.1.5-.3,1-.5,1.5-.6.5-.1,1-.2,1.4-.2s1,0,1.5.3c.5.2,1,.5,1.4.8.4.4.8.9,1,1.4.3.6.4,1.3.4,2.1s-.1,1.4-.3,2c-.2.6-.5,1.2-.9,1.7-.4.5-.9.9-1.5,1.2-.6.3-1.2.4-1.9.4Zm10.3,12.4c-.8,0-1.5,0-2-.2-.5-.2-.9-.4-1.2-.8-.3-.3-.5-.7-.6-1.2-.1-.5-.2-1-.2-1.6s0-1,0-1.7c0-.7.1-1.8.2-3,.1-1.3.2-2.9.4-4.9.2-2,.3-4.5.6-7.4,0-.6,0-.9.2-1,0,0,.3-.1.6-.1h1.6c.8,0,1.5,0,2,.2.5.2.9.4,1.2.7.3.3.5.7.6,1.2.1.5.2,1,.2,1.5s0,1,0,1.8c0,.8-.1,1.9-.2,3.3,0,1.4-.2,3.1-.4,5.1-.2,2-.4,4.5-.6,7.4,0,.3,0,.5-.2.6-.1.1-.3.2-.7.2h-1.4Zm-2.8-26.7c0-1.1.4-1.9,1.2-2.5.8-.6,1.8-.9,3.1-.9s2,.2,2.5.7c.5.5.8,1.1.8,1.8s-.4,1.8-1.1,2.5c-.7.6-1.8,1-3.2,1-2.2,0-3.2-.9-3.2-2.6Zm19.1,21.6c.3-1.1.6-2.2.9-3.3.3-1.1.6-2.3.8-3.5.3-1.3.6-2.6.9-4.1.3-1.5.7-3.2,1.2-5.1,0-.4.2-.6.4-.7.2-.1.5-.2,1-.2s.9,0,1.6,0c.7,0,1.3.1,2,.3s1.2.4,1.6.7c.5.3.7.8.7,1.3s-.2,1.2-.5,2.2c-.3,1-.7,2.2-1.2,3.5-.5,1.3-1.1,2.6-1.7,4-.6,1.4-1.2,2.7-1.8,4-.6,1.3-1.1,2.4-1.6,3.3-.5.9-.9,1.6-1.1,2-.2.3-.4.5-.6.5-.2,0-.4,0-.8,0h-3.6c-.6,0-1,0-1.4-.3-.3-.2-.6-.5-.9-.8-.2-.3-.4-.7-.6-1.1-.2-.4-.3-.9-.4-1.3-.8-2.7-1.5-4.9-2-6.8-.6-1.9-1-3.5-1.4-4.8-.4-1.3-.7-2.3-1-3-.2-.8-.4-1.4-.6-1.8-.1-.4-.2-.7-.3-.8,0-.2,0-.3,0-.3,0-.2.2-.4.4-.6.2-.2.5-.3.9-.3,1.2,0,2.3,0,3.1.2.9,0,1.6.2,2.2.5.6.2,1,.6,1.3,1,.3.4.5,1,.7,1.7,0,.2,0,.6.2,1.1,0,.6.2,1.2.2,2,.1.8.2,1.6.4,2.6.1.9.3,1.9.4,2.8.1.9.3,1.8.4,2.7.1.9.3,1.6.4,2.3Zm17.3,5.1c-.8,0-1.5,0-2-.2-.5-.2-.9-.4-1.2-.8-.3-.3-.5-.7-.6-1.2-.1-.5-.2-1-.2-1.6s0-1,0-1.7c0-.7.1-1.8.2-3,.1-1.3.2-2.9.4-4.9.2-2,.3-4.5.6-7.4,0-.6,0-.9.2-1,0,0,.3-.1.6-.1h1.6c.8,0,1.5,0,2,.2.5.2.9.4,1.2.7.3.3.5.7.6,1.2.1.5.2,1,.2,1.5s0,1,0,1.8c0,.8-.1,1.9-.2,3.3,0,1.4-.2,3.1-.4,5.1-.2,2-.4,4.5-.6,7.4,0,.3,0,.5-.2.6-.1.1-.3.2-.7.2h-1.4Zm-2.8-26.7c0-1.1.4-1.9,1.2-2.5.8-.6,1.8-.9,3.1-.9s2,.2,2.5.7c.5.5.8,1.1.8,1.8s-.4,1.8-1.1,2.5c-.7.6-1.8,1-3.2,1-2.2,0-3.2-.9-3.2-2.6Zm8.8,21.8c0-2.4,1.1-4.3,3.2-5.6,2.2-1.4,5.3-2.1,9.6-2.2,0-.3,0-.5,0-.7,0-.2,0-.5,0-.8,0-.9-.2-1.5-.5-2-.3-.5-1-.8-2-.8s-1,0-1.4.2c-.3.2-.6.4-.8.7-.2.3-.4.6-.5,1-.1.4-.3.8-.4,1.3,0,.2-.2.4-.4.5-.2,0-.5,0-.9,0-2.7,0-4.1-1-4.1-3.1s.2-1.6.6-2.4c.4-.7,1-1.4,1.7-1.9.8-.6,1.7-1,2.9-1.3,1.1-.3,2.5-.5,4-.5,3,0,5.1.6,6.4,1.8,1.3,1.2,2,3,2,5.2s0,.8-.1,1.6c0,.7-.1,1.5-.2,2.4,0,.8-.2,1.6-.2,2.4,0,.7,0,1.3,0,1.6,0,.7.1,1.1.4,1.4.2.3.5.5.8.6.3.1.6.2.8.2.2,0,.4.2.4.4,0,.6,0,1.2-.2,1.8s-.4,1.2-.8,1.7c-.3.5-.8.9-1.5,1.2-.6.3-1.4.5-2.3.5s-2.2-.3-2.9-.9-1.1-1.5-1.3-2.6c-.6.9-1.5,1.7-2.5,2.4-1,.7-2.3,1-4,1s-1.6,0-2.3-.3c-.7-.2-1.3-.5-1.8-.9-.5-.4-.9-1-1.2-1.6-.3-.7-.4-1.5-.4-2.5Zm12.4-4.6c-.7,0-1.4,0-2,.2-.7.1-1.3.3-1.8.5-.5.2-.9.5-1.2.9-.3.4-.5.8-.5,1.4s.2,1,.6,1.3c.4.2.8.4,1.3.4s.9,0,1.3-.3c.4-.2.8-.5,1.1-.8.3-.4.6-.9.9-1.4.2-.6.4-1.2.4-2Z"/><path d="m178,8h32v32h-32V8Z" style="fill:none;"/><g id="lapis"><path d="m210,13.3c-.2.7-.6,1.2-1.1,1.7-7.1,7.1-14.2,14.2-21.3,21.3-.4.4-.9.7-1.5,1-1,.4-2.1.8-3.1,1.3-1.1.4-2.2.9-3.3,1.3-.8.3-1.6-.4-1.7-1.2,0-.6.3-1.1.5-1.6.4-1,.8-1.9,1.2-2.9.4-1,.8-2,1.3-3.1,0-.2.3-.4.4-.6,2.1-2.2,4.3-4.3,6.5-6.4,5.1-5,10.1-10.1,15.2-15.1.4-.4.8-.9,1.5-1,0,0,.1,0,.1,0h.8c0,0,.1,0,.1,0,.5,0,.8.3,1.2.6,1,.9,1.9,1.8,2.8,2.8.3.3.4.8.5,1.1v.6Zm-7.4,4.6c-.2-.2-.5-.5-.7-.7-.2-.2-.3-.2-.6,0-2.4,2.5-4.9,4.9-7.4,7.4,0,0-.2.2-.3.2-.3.2-.5.2-.7,0-.2-.2-.1-.4,0-.6.7-.7,1.3-1.4,2-2,1.9-1.8,3.7-3.7,5.6-5.6.2-.2.1-.3,0-.4-.5-.5-1-1-1.5-1.5-.2-.2-.3-.2-.6,0-3.1,3.1-6.2,6.2-9.3,9.3-2.4,2.4-4.8,4.8-7.2,7.2-.2.2-.2.3,0,.5.5.4.9.9,1.4,1.4q.4.4.8,0s0,0,.1-.1c2.4-2.4,4.8-4.8,7.1-7.1,0,0,0-.1.2-.2.2-.2.4-.2.7,0,.2.1.2.4,0,.6,0,0-.1.1-.2.2-1.5,1.5-3.1,3.1-4.6,4.6-1,1-2,2-3,3,.4.4.7.7,1,1.1.3.3.5.6.8.8,0,0,0,.1.2,0,.5-.6,1.1-1.1,1.7-1.7,2.1-2.1,4.1-4.1,6.2-6.2,1.8-1.8,3.5-3.5,5.3-5.3,1.2-1.2,2.4-2.4,3.6-3.6,0,0,.2-.1,0-.3-.3-.3-.6-.6-.9-.9Zm6.4-5c0-.4-.2-.7-.4-1-.9-.9-1.7-1.7-2.6-2.6-.6-.6-1.5-.6-2,0-.7.7-1.5,1.5-2.2,2.2-.1.1-.1.2,0,.4,1.4,1.4,2.8,2.8,4.3,4.3.1.1.2.1.4,0,.7-.7,1.4-1.4,2.1-2.1.3-.3.5-.7.5-1.1Zm-23.2,23.5s0,0,0,0c-1.4-1.4-2.7-2.7-4.1-4.1-.2-.2-.2,0-.3,0-.5,1.1-.9,2.2-1.4,3.4,0,.2,0,.2,0,.3.6.6,1.2,1.2,1.7,1.7.1.1.3.2.5,0,.4-.2.8-.3,1.2-.5.8-.3,1.5-.6,2.3-.9Zm13.9-22.8c1.6,1.6,3.1,3.1,4.7,4.7.4-.4.8-.8,1.2-1.2,0-.1,0-.2,0-.2-1.5-1.4-2.9-2.9-4.3-4.3-.1-.1-.2-.1-.3,0-.4.4-.8.8-1.2,1.2Z" style="fill:#010101;"/><path d="m185.7,35c-.3-.4-.7-.7-1-1.1,1-1,2-2,3-3,1.5-1.5,3.1-3.1,4.6-4.6,0,0,.1-.1.2-.2.1-.2.1-.5,0-.6-.2-.1-.4-.1-.7,0,0,0-.1.1-.2.2-2.4,2.4-4.8,4.8-7.1,7.1,0,0,0,0-.1.1q-.4.4-.8,0c-.5-.5-.9-.9-1.4-1.4-.2-.2-.2-.3,0-.5,2.4-2.4,4.8-4.8,7.2-7.2,3.1-3.1,6.2-6.2,9.3-9.3.2-.2.3-.2.6,0,.5.5,1,1,1.5,1.5.2.2.2.3,0,.4-1.9,1.8-3.7,3.7-5.6,5.6-.7.7-1.3,1.4-2,2-.2.2-.2.4,0,.6.2.3.4.3.7,0,.1,0,.2-.1.3-.2,2.5-2.4,4.9-4.9,7.4-7.4.2-.2.4-.2.6,0,.2.2.4.5.7.7,0,.2-.2.2-.3.3-5.5,5.5-10.9,10.9-16.4,16.4,0,0-.2.2-.2.3Z" style="fill:#ffd23b;"/><path d="m185.7,35c0-.2.1-.2.2-.3,5.5-5.5,10.9-10.9,16.4-16.4,0,0,.2-.2.3-.3.3.3.6.6.9.9.2.2,0,.2,0,.3-1.2,1.2-2.4,2.4-3.6,3.6-1.8,1.8-3.5,3.5-5.3,5.3-2.1,2.1-4.1,4.1-6.2,6.2-.6.6-1.1,1.1-1.7,1.7-.1.1-.1,0-.2,0-.3-.3-.6-.6-.8-.8Z" style="fill:#ffb24a;"/><path d="m209.1,13c0,.4-.2.8-.5,1.1-.7.7-1.4,1.4-2.1,2.1-.1.1-.2.1-.4,0-1.4-1.4-2.8-2.8-4.3-4.3-.1-.1-.2-.2,0-.4.7-.7,1.4-1.5,2.2-2.2.5-.5,1.4-.5,2,0,.9.9,1.7,1.7,2.6,2.6.3.3.4.6.4,1Z" style="fill:#fe5178;"/><path d="m185.8,36.5c-.8.3-1.5.6-2.3.9-.4.2-.8.3-1.2.5-.2,0-.3,0-.5,0-.6-.6-1.2-1.2-1.7-1.7,0,0-.1-.2,0-.3.5-1.1.9-2.2,1.4-3.4,0-.1,0-.3.3,0,1.4,1.4,2.7,2.7,4.1,4.1,0,0,0,0,0,0Z" style="fill:#fff0be;"/><path d="m199.7,13.6c.4-.4.8-.8,1.2-1.2.1-.1.2-.1.3,0,1.4,1.5,2.9,2.9,4.3,4.3,0,0,.1.1,0,.2-.3.5-.8.8-1.2,1.2-1.6-1.6-3.1-3.1-4.7-4.7Z" style="fill:#fff;"/></g></svg>